<svg xmlns="http://www.w3.org/2000/svg" viewBox="0 0 800 900">
  <!-- 背景 -->
  <rect width="800" height="900" fill="#f5f7fa" />
  
  <!-- アプリコンテナ -->
  <rect x="100" y="50" width="600" height="800" rx="10" ry="10" fill="white" stroke="#e1e4e8" stroke-width="1" />
  
  <!-- ヘッダー -->
  <rect x="100" y="50" width="600" height="60" rx="10" ry="10" fill="#4285f4" />
  <text x="400" y="90" font-family="Arial" font-size="24" fill="white" text-anchor="middle">ファイル検索アプリ</text>
  
  <!-- 検索フォーム -->
  <rect x="120" y="130" width="560" height="180" rx="8" ry="8" fill="#f5f5f5" stroke="#e1e4e8" stroke-width="1" />
  
  <!-- 検索パスラベルと入力欄 -->
  <text x="140" y="160" font-family="Arial" font-size="14" fill="#333" font-weight="bold">検索パス:</text>
  <rect x="140" y="170" width="520" height="40" rx="4" ry="4" fill="white" stroke="#ddd" stroke-width="1" />
  <text x="150" y="195" font-family="Arial" font-size="14" fill="#666">/Users/username/Documents</text>
  
  <!-- 検索パターンラベルと入力欄 -->
  <text x="140" y="235" font-family="Arial" font-size="14" fill="#333" font-weight="bold">検索パターン:</text>
  <rect x="140" y="245" width="520" height="40" rx="4" ry="4" fill="white" stroke="#ddd" stroke-width="1" />
  <text x="150" y="270" font-family="Arial" font-size="14" fill="#999">検索するパターンを入力</text>
  
  <!-- 検索ボタン -->
  <rect x="140" y="300" width="520" height="40" rx="4" ry="4" fill="#4285f4" />
  <text x="400" y="325" font-family="Arial" font-size="16" fill="white" text-anchor="middle">検索</text>
  
  <!-- 検索結果エリア（初期状態） -->
  <rect x="120" y="340" width="560" height="480" rx="8" ry="8" fill="white" stroke="#e1e4e8" stroke-width="1" />
  <text x="140" y="375" font-family="Arial" font-size="18" fill="#333" font-weight="bold">検索結果 (0件)</text>
  <line x1="140" y1="385" x2="660" y2="385" stroke="#eee" stroke-width="1" />
  
  <!-- 初期メッセージ -->
  <text x="400" y="500" font-family="Arial" font-size="16" fill="#999" text-anchor="middle" font-style="italic">検索結果がありません</text>
  
  <!-- 検索後の状態（半透明で表示） -->
  <g opacity="0.3">
    <!-- 検索パターン入力済み -->
    <rect x="140" y="245" width="520" height="40" rx="4" ry="4" fill="white" stroke="#ddd" stroke-width="1" />
    <text x="150" y="270" font-family="Arial" font-size="14" fill="#333">melodic_158_G#min</text>
    
    <!-- 検索結果ヘッダー -->
    <text x="140" y="375" font-family="Arial" font-size="18" fill="#333" font-weight="bold">検索結果 (2件)</text>
    
    <!-- 検索結果リスト -->
    <rect x="140" y="400" width="520" height="60" rx="4" ry="4" fill="#f9f9f9" stroke="#eee" stroke-width="1" />
    <text x="155" y="435" font-family="Consolas, monospace" font-size="14" fill="#333">/Users/username/Documents</text>
    <rect x="560" y="415" width="80" height="30" rx="4" ry="4" fill="#f1f1f1" stroke="#ddd" stroke-width="1" />
    <text x="600" y="435" font-family="Arial" font-size="12" fill="#333" text-anchor="middle">コピー</text>
    
    <rect x="140" y="470" width="520" height="60" rx="4" ry="4" fill="#f9f9f9" stroke="#eee" stroke-width="1" />
    <text x="155" y="505" font-family="Consolas, monospace" font-size="14" fill="#333">/Users/username/Documents</text>
    <rect x="560" y="485" width="80" height="30" rx="4" ry="4" fill="#f1f1f1" stroke="#ddd" stroke-width="1" />
    <text x="600" y="505" font-family="Arial" font-size="12" fill="#333" text-anchor="middle">コピー</text>
  </g>
</svg>
